<?xml version="1.0" standalone="no"?>
<!DOCTYPE svg PUBLIC "-//W3C//DTD SVG 20010904//EN" "http://www.w3.org/TR/2001/REC-SVG-20010904/DTD/svg10.dtd">
<svg xmlns="http://www.w3.org/2000/svg" version="1.0" width="512" height="512" viewBox="0 0 512 512">
  <path d="M256 40C138 40 40 138 40 256s98 216 216 216 216-98 216-216S374 40 256 40zm0 40c97 0 176 79 176 176s-79 176-176 176S80 353 80 256 159 80 256 80z" fill="black"/>
  <path d="M256 120c-75 0-136 61-136 136s61 136 136 136 136-61 136-136S331 120 256 120zm0 40c53 0 96 43 96 96s-43 96-96 96-96-43-96-96 43-96 96-96z" fill="black"/>
  <path d="M256 200c-31 0-56 25-56 56s25 56 56 56 56-25 56-56-25-56-56-56zm0 32c13 0 24 11 24 24s-11 24-24 24-24-11-24-24 11-24 24-24z" fill="black"/>
  <path d="M120 352h272v32H120z" fill="black"/>
  <path d="M352 352l64 16-64 16z" fill="black"/>
  <path d="M160 320h48v64h-48z" fill="black"/>
</svg>
